# Blender 4.5.0
# www.blender.org
mtllib chair.mtl
o Cube
v 0.197284 0.370176 -0.189245
v 0.197284 0.336361 -0.189280
v 0.197284 0.370606 0.184355
v -0.197284 0.367947 -0.192071
v -0.197284 0.338607 -0.192126
v -0.197284 0.368364 0.184355
v 0.195336 0.334573 -0.215670
v -0.197405 0.332762 -0.221155
v 0.197264 0.374437 -0.225268
v -0.197314 0.374248 -0.221232
v -0.197284 0.820616 -0.279340
v 0.197284 0.821685 -0.280694
v 0.193550 -0.071610 -0.267798
v -0.197393 -0.067017 -0.277231
v -0.197284 0.332475 0.213215
v 0.197284 0.332475 0.215915
v 0.217917 0.372493 -0.186310
v 0.217879 0.334028 -0.186324
v 0.220672 0.371787 0.184355
v 0.219188 0.374400 -0.227481
v 0.219745 0.335712 -0.218417
v 0.222257 0.821998 -0.281091
v 0.219005 -0.073377 -0.267547
v 0.220888 0.332475 0.217298
v -0.214186 0.335090 -0.187669
v -0.218625 0.370025 0.184355
v -0.214251 0.371439 -0.187645
v -0.216177 0.374035 -0.224443
v -0.214234 0.332475 -0.227260
v -0.221130 0.821031 -0.279865
v -0.216125 -0.068639 -0.282204
v -0.217471 -0.069801 -0.240700
v -0.218943 0.332475 0.215176
v 0.226733 -0.077795 -0.255963
v 0.193594 -0.077994 -0.255711
v 0.193594 0.335662 -0.205711
v 0.226733 0.335463 -0.205963
v -0.223267 0.332475 -0.221148
v -0.197284 0.332475 -0.221148
v 0.197284 0.335081 0.145161
v 0.197284 0.301548 0.187453
v 0.197284 0.330530 0.166307
v 0.197284 0.318256 0.181787
v -0.197284 0.303135 0.189473
v -0.197284 0.336745 0.147172
v -0.197284 0.319855 0.183805
v -0.197284 0.332157 0.168322
v -0.197284 0.337096 0.213458
v -0.197284 0.367654 0.173191
v -0.197284 0.353353 0.208704
v -0.197284 0.364538 0.193966
v 0.197284 0.370258 0.175002
v 0.197284 0.338576 0.216100
v 0.197284 0.366587 0.195920
v 0.197284 0.354990 0.210963
v 0.220017 0.300066 0.185672
v 0.219685 0.333508 0.143307
v 0.220571 0.366674 0.184519
v 0.220886 0.332477 0.217245
v 0.219936 0.316763 0.179963
v 0.219815 0.329003 0.164456
v 0.220672 0.371787 0.184355
v 0.220963 0.339101 0.217380
v 0.220956 0.367620 0.201020
v 0.221063 0.355656 0.213108
v -0.216937 0.334298 0.144275
v -0.217465 0.300795 0.186702
v -0.218940 0.332478 0.215123
v -0.218526 0.367389 0.184516
v -0.217136 0.329772 0.165428
v -0.217329 0.317509 0.180958
v -0.219054 0.337732 0.215298
v -0.218625 0.370025 0.184355
v -0.219255 0.354238 0.211436
v -0.219098 0.366058 0.200110
v -0.197284 0.820618 -0.277736
v -0.197284 0.812389 -0.265833
v 0.197284 0.813457 -0.264454
v 0.197284 0.821688 -0.276387
v 0.222260 0.822001 -0.275994
v 0.222187 0.813772 -0.264008
v -0.221019 0.812808 -0.265231
v -0.221133 0.821033 -0.277214
v 0.194515 -0.071432 -0.260428
v 0.197284 -0.054368 -0.237248
v -0.197349 -0.067679 -0.263225
v -0.197284 -0.052122 -0.240094
v -0.216451 -0.069744 -0.240772
v -0.197284 -0.071017 0.260548
v -0.197284 -0.054232 0.237261
v 0.197284 -0.055826 0.235242
v 0.197284 -0.072516 0.258529
v -0.197284 -0.070824 0.244102
v -0.197284 -0.054527 0.263045
v 0.197284 -0.072425 0.246010
v 0.197284 -0.056030 0.264994
v 0.219751 -0.055282 -0.236012
v 0.219241 -0.072935 -0.259129
v 0.221263 -0.073070 0.257773
v 0.221082 -0.056423 0.234439
v 0.221308 -0.056573 0.265717
v 0.221194 -0.073010 0.246698
v -0.219362 -0.054978 0.236232
v -0.219669 -0.071699 0.259601
v -0.219517 -0.071568 0.244961
v -0.219704 -0.055207 0.263962
v -0.197324 -0.071925 -0.241898
v -0.197284 -0.058183 -0.221148
v -0.223267 -0.058183 -0.221148
v -0.220823 -0.072696 -0.242047
vn -0.0544 0.8205 0.5691
vn -0.0661 -0.8116 0.5805
vn -0.3063 -0.0083 0.9519
vn 0.0777 0.8172 0.5711
vn 0.0980 -0.8082 0.5807
vn 0.4337 -0.0574 0.8992
vn 0.3477 -0.4916 -0.7984
vn 0.0103 -0.4377 -0.8991
vn -0.0403 -0.1497 -0.9879
vn 0.0837 -0.0838 -0.9930
vn 0.0327 0.7532 -0.6570
vn -0.0267 0.7539 -0.6565
vn 0.7000 -0.6868 -0.1956
vn -0.6084 -0.6204 -0.4949
vn 0.0343 0.0444 0.9984
vn -0.0277 0.0478 0.9985
vn 0.8413 0.4376 0.3173
vn 0.8462 -0.4272 0.3184
vn 0.9999 -0.0153 0.0077
vn 0.7122 -0.1255 -0.6907
vn 0.5721 -0.8090 -0.1347
vn 0.5432 0.6407 -0.5426
vn -0.1035 0.1201 0.9873
vn 0.7410 0.0309 0.6707
vn -0.8167 -0.4757 0.3267
vn -0.9995 -0.0286 0.0139
vn -0.8220 0.4573 0.3395
vn -0.7188 -0.0467 -0.6937
vn -0.3978 -0.8470 -0.3527
vn -0.5334 0.6498 -0.5415
vn 0.1005 0.1723 0.9799
vn -0.4894 -0.7185 0.4942
vn -0.7391 0.0231 0.6732
vn -0.6724 0.7061 -0.2218
vn 0.5127 0.8058 -0.2965
vn 0.5777 -0.6112 -0.5409
vn -0.7003 -0.6175 -0.3582
vn 0.7666 -0.3361 -0.5471
vn -0.8062 -0.4102 -0.4263
vn -0.0463 -0.9930 -0.1086
vn -0.0427 -0.2309 -0.9720
vn -0.0503 -0.9071 -0.4180
vn -0.0547 -0.5908 -0.8050
vn 0.0652 -0.2327 -0.9704
vn 0.0746 -0.9910 -0.1107
vn 0.0865 -0.5913 -0.8018
vn 0.0800 -0.9046 -0.4187
vn 0.0462 0.1181 0.9919
vn 0.1585 -0.0513 0.9860
vn 0.0718 0.5609 0.8248
vn 0.0844 0.9158 0.3928
vn -0.1281 -0.0818 0.9884
vn -0.0370 0.1278 0.9911
vn -0.0661 0.9150 0.3981
vn -0.0577 0.5675 0.8213
vn 0.7210 -0.1561 -0.6751
vn 0.6463 -0.7584 -0.0843
vn 0.9998 -0.0112 -0.0153
vn 0.9998 -0.0078 -0.0191
vn 0.6021 -0.4662 -0.6482
vn 0.5561 -0.7535 -0.3507
vn 0.9325 0.1796 0.3132
vn 0.7030 0.0866 0.7059
vn 0.5697 0.7364 0.3648
vn 0.6423 0.4212 0.6404
vn -0.6127 -0.7852 -0.0901
vn -0.6975 -0.1597 -0.6986
vn -0.9993 -0.0146 -0.0341
vn -0.9994 -0.0207 -0.0263
vn -0.5066 -0.7800 -0.3673
vn -0.5538 -0.4833 -0.6781
vn -0.7003 0.0685 0.7106
vn -0.9134 0.2376 0.3306
vn -0.6370 0.4144 0.6500
vn -0.5542 0.7473 0.3665
vn 0.0099 0.9593 0.2823
vn 0.0402 0.5621 0.8261
vn -0.0295 0.5626 0.8262
vn -0.0102 0.9591 0.2829
vn 0.5821 0.7756 0.2441
vn 0.6191 0.4365 0.6528
vn -0.6015 0.4390 0.6674
vn -0.5787 0.7749 0.2541
vn -0.0426 -0.9528 0.3007
vn -0.0545 -0.5295 0.8465
vn 0.1227 -0.9736 0.1923
vn 0.1758 -0.4443 0.8785
vn 0.2657 -0.7980 0.5409
vn 0.0124 0.4309 -0.9023
vn 0.0372 -0.5386 -0.8417
vn -0.0300 -0.5396 -0.8414
vn -0.0115 0.4362 -0.8998
vn 0.0089 0.4645 0.8855
vn 0.0287 -0.3844 0.9227
vn -0.0084 0.4736 0.8807
vn -0.0259 -0.3859 0.9222
vn 0.6115 -0.4127 0.6751
vn 0.5628 -0.7763 0.2839
vn 0.5472 0.3853 -0.7430
vn 0.6211 -0.4224 -0.6601
vn 0.6382 -0.3062 0.7064
vn 0.5554 0.4257 0.7144
vn -0.6059 -0.4256 -0.6721
vn -0.5391 0.3933 -0.7448
vn -0.5536 0.4343 0.7106
vn -0.6355 -0.3122 0.7062
vn -0.5927 0.7847 -0.1816
vn -0.6419 0.3862 -0.6624
vn 0.7099 0.4051 -0.5761
vn 0.5637 0.8232 -0.0681
vt 0.625000 0.500000
vt 0.875000 0.500000
vt 0.875000 0.750000
vt 0.625000 0.750000
vt 0.375000 0.250000
vt 0.625000 0.250000
vt 0.375000 0.500000
vt 0.375000 0.750000
vt 0.375000 0.750000
vt 0.375000 0.745906
vt 0.375000 0.724272
vt 0.591662 0.750000
vt 0.375000 0.750000
vt 0.375000 0.024401
vt 0.375000 0.000000
vt 0.375000 0.000000
vt 0.575957 0.000000
vt 0.875000 0.750000
vt 0.875000 0.750000
vt 0.875000 0.750000
vt 0.875000 0.750000
vt 0.625000 1.000000
vt 0.625000 1.000000
vt 0.515607 1.000000
vt 0.511950 1.000016
vt 0.409106 1.000000
vt 0.405516 1.000000
vt 0.413757 0.750000
vt 0.416525 0.750000
vt 0.520020 0.750000
vt 0.517152 0.750016
vt 0.614570 0.750000
vt 0.625034 0.750033
vt 0.625000 0.750000
vt 0.125000 0.722287
vt 0.375000 0.721935
vt 0.375017 0.735990
vt 0.125018 0.736169
vt 0.375015 0.750000
vt 0.125015 0.750000
vt 0.125000 0.750000
vt 0.125000 0.750000
vt 0.125000 0.750000
vt 0.125000 0.735989
vt 0.125000 0.721765
vt 0.125000 0.500000
vt 0.375000 1.000000
vt 0.625000 0.000000
vt 0.409105 0.000000
vt 0.515972 0.000000
vt 0.595057 0.000000
vt 0.875000 0.500000
vt 0.625000 0.500000
vt 0.875000 0.500000
vt 0.875000 0.500000
vt 0.125000 0.500000
vt 0.125000 0.750000
vt 0.125000 0.750000
vt 0.375000 0.500000
vt 0.374997 0.750000
vt 0.375000 0.500000
vt 0.375000 1.000000
vt 0.375000 0.250000
s 1
usemtl Material
f 1/1/1 4/2/4 6/3/6 3/4/3
f 1/1/1 3/4/3 19/4/19 17/1/17
f 8/5/8 10/6/10 9/1/9 7/7/7
f 10/6/10 8/5/8 29/5/29 28/6/28
f 9/1/9 10/6/10 11/6/11 12/1/12
f 8/5/8 7/7/7 13/7/13 14/5/14
f 7/7/7 9/1/9 20/1/20 21/7/21
f 7/7/7 21/7/21 37/7/37 36/7/36
f 29/5/29 8/5/8 39/5/39 38/5/38
f 17/1/17 18/7/18 21/7/21 20/1/20
f 9/1/9 12/1/12 22/1/22 20/1/20
f 25/5/25 27/6/27 28/6/28 29/5/29
f 25/5/25 29/5/29 31/5/31 32/5/32
f 6/3/6 4/2/4 27/2/27 26/3/26
f 11/6/11 10/6/10 28/6/28 30/6/30
f 35/7/35 36/7/36 37/7/37 34/7/34
f 21/7/21 23/7/23 34/7/34 37/7/37
f 23/7/23 13/7/13 35/7/35 34/7/34
f 13/7/13 7/7/7 36/7/36 35/7/35
f 56/8/56 60/9/60 61/10/61 57/11/57 58/12/58 59/13/59
f 66/14/66 70/15/70 71/15/71 67/16/67 68/15/68 69/17/69
f 49/18/49 73/19/73 75/20/75 51/21/51
f 51/22/51 75/23/75 74/24/74 50/25/50
f 50/25/50 74/24/74 72/26/72 48/27/48
f 53/28/53 63/29/63 65/30/65 55/31/55
f 55/31/55 65/30/65 64/32/64 54/33/54
f 54/33/54 64/32/64 62/34/62 52/4/52
f 45/35/45 40/36/40 42/37/42 47/38/47
f 47/38/47 42/37/42 43/39/43 46/40/46
f 46/40/46 43/39/43 41/8/41 44/41/44
f 52/4/52 49/18/49 51/21/51 54/33/54
f 54/33/54 51/22/51 50/25/50 55/31/55
f 55/31/55 50/25/50 48/27/48 53/28/53
f 56/8/56 41/8/41 43/39/43 60/9/60
f 60/9/60 43/39/43 42/37/42 61/10/61
f 61/10/61 42/37/42 40/36/40 57/11/57
f 44/41/44 67/42/67 71/43/71 46/40/46
f 46/40/46 71/43/71 70/44/70 47/38/47
f 47/38/47 70/44/70 66/45/66 45/35/45
f 5/46/5 2/7/2 40/36/40 45/35/45
f 40/36/40 2/7/2 18/7/18 57/11/57
f 5/46/5 45/35/45 66/45/66 25/46/25
f 49/18/49 6/3/6 26/3/26 73/19/73
f 15/47/15 48/27/48 72/26/72 33/47/33
f 16/9/16 53/28/53 48/27/48 15/47/15
f 3/4/3 6/3/6 49/18/49 52/4/52
f 53/28/53 16/9/16 24/9/24 63/29/63
f 3/4/3 52/4/52 62/34/62 19/4/19
f 59/13/59 58/12/58 19/4/19 62/34/62 64/32/64 65/30/65 63/29/63 24/9/24
f 18/7/18 17/1/17 19/4/19 58/12/58 57/11/57
f 66/14/66 69/17/69 26/48/26 27/6/27 25/5/25
f 26/48/26 69/17/69 68/15/68 33/15/33 72/49/72 74/50/74 75/51/75 73/48/73
f 77/52/77 78/1/78 79/1/79 76/2/76
f 78/1/78 81/53/81 80/1/80 79/1/79
f 82/54/82 77/52/77 76/2/76 83/55/83
f 4/2/4 1/1/1 78/1/78 77/52/77
f 4/2/4 77/52/77 82/54/82 27/2/27
f 76/2/76 79/1/79 12/1/12 11/2/11
f 76/2/76 11/2/11 30/2/30 83/55/83
f 78/1/78 1/1/1 17/1/17 81/53/81
f 12/1/12 79/1/79 80/1/80 22/1/22
f 17/1/17 20/1/20 22/1/22 80/1/80 81/53/81
f 28/6/28 27/6/27 82/6/82 83/6/83 30/6/30
f 86/46/86 87/56/87 88/46/88
f 105/57/105 93/58/93 94/57/94 106/58/106
f 85/59/85 87/56/87 86/46/86 84/59/84
f 90/42/90 91/8/91 92/8/92 89/42/89
f 93/58/93 95/9/95 96/60/96 94/57/94
f 95/9/95 102/9/102 101/9/101 96/60/96
f 97/59/97 85/59/85 84/59/84 98/61/98
f 91/8/91 100/9/100 99/13/99 92/8/92
f 103/57/103 90/42/90 89/42/89 104/57/104
f 107/46/107 110/46/110 109/46/109 108/46/108
f 84/59/84 86/46/86 14/46/14 13/7/13
f 84/59/84 13/7/13 23/7/23 98/61/98
f 2/7/2 5/46/5 87/56/87 85/59/85
f 2/7/2 85/59/85 97/59/97 18/7/18
f 88/46/88 87/56/87 5/46/5 25/46/25 32/46/32
f 14/46/14 86/46/86 88/46/88 32/46/32 31/46/31
f 44/41/44 41/8/41 91/8/91 90/42/90
f 89/42/89 92/8/92 95/9/95 93/58/93
f 89/42/89 93/58/93 105/57/105 104/57/104
f 44/41/44 90/42/90 103/57/103 67/42/67
f 95/9/95 92/8/92 99/13/99 102/9/102
f 91/8/91 41/8/41 56/8/56 100/9/100
f 16/9/16 15/47/15 94/62/94 96/60/96
f 94/62/94 15/47/15 33/47/33 106/47/106
f 16/9/16 96/60/96 101/9/101 24/9/24
f 21/7/21 18/7/18 97/59/97 98/61/98 23/7/23
f 56/8/56 59/13/59 24/9/24 101/9/101 102/9/102 99/13/99 100/9/100
f 33/15/33 68/15/68 67/16/67 103/15/103 104/15/104 105/15/105 106/15/106
f 8/5/8 14/5/14 107/5/107 108/63/108 39/5/39
f 39/5/39 108/63/108 109/5/109 38/5/38
f 14/46/14 31/46/31 110/46/110 107/46/107
f 31/5/31 29/5/29 38/5/38 109/5/109 110/5/110
